<?xml version="1.0" encoding="UTF-8"?>
<svg id="Layer_1" xmlns="http://www.w3.org/2000/svg" version="1.1" viewBox="0 0 1024 1024">
  <!-- Generator: Adobe Illustrator 29.8.3, SVG Export Plug-In . SVG Version: 2.1.1 Build 3)  -->
  <path d="M370.79,650.19c93.71-3.47,188.7-3.5,282.41,0-93.71,3.5-188.7,3.47-282.41,0h0Z"/>
  <g>
    <path d="M516.22,518.76l11.87-8.93c13.47-13.87,15.25-42.51-5.07-50.31,18.05-14.26,21.41-45.49,13.83-66.34-4.48-12.33-15.76-25.42-28.97-28.6-8.44-2.03-17.8.21-25.5-3.27l29.39-29.51,79.82,86.2,22.06-21.94.69-3.33-103.79-108.35c-11.79,12.49-23.32,25.23-34.77,38.03l-52.78,57.73c-5.35,5.18-10.65,10.42-14.97,16.37l-6.18,6.76v23.82h26.71l26.58-32.06c15.7,3.15,58.19-6.73,56.82,19.82-.55,10.66-4.08,15.71-8.81,18.01h-26.22l-31.03,35.14-.62,65.88c2.33,4.69,5.71,1.25,9.2,1.39,13.13.55,41.69-1.34,50.77,6.34,10.72,9.08,9.87,30.91-5.09,33.88-14.49,2.88-37.81-2.14-53.34,0v33.02l2.54,2.54h44.03c55.09,0,64.72-66.62,22.85-92.3h-.02ZM509.57,488.4c-1.51,17.03-21.55,11.85-33.98,12.61v-32.17c17.04.06,36.07-3.88,33.98,19.57h0Z"/>
    <path d="M648.38,440.82c-29.39-15.19-65.31-7.24-85.74,18.54-42.07,53.08-16.47,162.3,64.06,151.27,76.72-10.51,85.61-136.77,21.68-169.81ZM603.91,573.34c-43.56-13.23-38.85-97.86,6.73-104.06,68.88-9.38,64.52,125.71-6.73,104.06Z"/>
    <path d="M438.29,573.81c-36.86,6.52-67.87.12-72.74-41.5-4.82-41.23,18.37-68.46,60.9-60.83l33.89-36.5c-39.83,1.64-76.42-10-105.85,23.67-33.5,38.33-29.27,124.7,22.88,146.5,20.53,6.19,41.59,6.24,62.66,4.23v-31.33c0-.62-2.16-2.59-1.73-4.24h-.01Z"/>
    <path d="M767.95,561.45c-9.58-10.38-19.16-20.77-28.8-31.07-.22-.24-.51-.44-.79-.64l-30.5-32.68c-3.96-4.41-7.97-8.77-12.12-12.99,4.37,16.81,5.38,34.68,4.62,52.02l37.68,41.11-47.41-.85-28.78,34.71h152.4l-46.3-49.6h0Z"/>
    <path d="M332.31,577.43c-.21-.37-.42-.73-.63-1.1l-44.03.87,35.77-40.25c1.23-.78,2.35-1.63,2.52-2.83-3.12-27.5,6.4-55.04,6.4-55.04l-3.21,3.31-119.38,128.67h145.61l5.36-.45c-11.67-5.26-25.36-27.93-28.4-33.18h0Z"/>
  </g>
</svg>